<svg xmlns="http://www.w3.org/2000/svg" xmlns:xlink="http://www.w3.org/1999/xlink">

  <symbol id="delete" viewBox="0 0 24 24">
    <path d="m12 2.75C11.0215 2.75 10.1871 3.37503 9.87787 4.24993C9.73983 4.64047 9.31134 4.84517 8.9208 4.70713C8.53026 4.56909 8.32557 4.1406 8.46361 3.75007C8.97804 2.29459 10.3661 1.25 12 1.25C13.634 1.25 15.022 2.29459 15.5365 3.75007C15.6745 4.1406 15.4698 4.56909 15.0793 4.70713C14.6887 4.84517 14.2602 4.64047 14.1222 4.24993C13.813 3.37503 12.9785 2.75 12 2.75Z" />
    <path d="m2.75 6C2.75 5.58579 3.08579 5.25 3.5 5.25H20.5001C20.9143 5.25 21.2501 5.58579 21.2501 6C21.2501 6.41421 20.9143 6.75 20.5001 6.75H3.5C3.08579 6.75 2.75 6.41421 2.75 6Z" />
    <path d="m5.91508 8.45011C5.88753 8.03681 5.53015 7.72411 5.11686 7.75166C4.70356 7.77921 4.39085 8.13659 4.41841 8.54989L4.88186 15.5016C4.96735 16.7844 5.03641 17.8205 5.19838 18.6336C5.36678 19.4789 5.6532 20.185 6.2448 20.7384C6.83639 21.2919 7.55994 21.5307 8.41459 21.6425C9.23663 21.75 10.2751 21.75 11.5607 21.75H12.4395C13.7251 21.75 14.7635 21.75 15.5856 21.6425C16.4402 21.5307 17.1638 21.2919 17.7554 20.7384C18.347 20.185 18.6334 19.4789 18.8018 18.6336C18.9637 17.8205 19.0328 16.7844 19.1183 15.5016L19.5818 8.54989C19.6093 8.13659 19.2966 7.77921 18.8833 7.75166C18.47 7.72411 18.1126 8.03681 18.0851 8.45011L17.6251 15.3492C17.5353 16.6971 17.4712 17.6349 17.3307 18.3405C17.1943 19.025 17.004 19.3873 16.7306 19.6431C16.4572 19.8988 16.083 20.0647 15.391 20.1552C14.6776 20.2485 13.7376 20.25 12.3868 20.25H11.6134C10.2626 20.25 9.32255 20.2485 8.60915 20.1552C7.91715 20.0647 7.54299 19.8988 7.26957 19.6431C6.99616 19.3873 6.80583 19.025 6.66948 18.3405C6.52891 17.6349 6.46488 16.6971 6.37503 15.3492L5.91508 8.45011Z" />
    <path d="m9.42546 10.2537C9.83762 10.2125 10.2051 10.5132 10.2464 10.9254L10.7464 15.9254C10.7876 16.3375 10.4869 16.7051 10.0747 16.7463C9.66256 16.7875 9.29502 16.4868 9.25381 16.0746L8.75381 11.0746C8.71259 10.6625 9.0133 10.2949 9.42546 10.2537Z" />
    <path d="m15.2464 11.0746C15.2876 10.6625 14.9869 10.2949 14.5747 10.2537C14.1626 10.2125 13.795 10.5132 13.7538 10.9254L13.2538 15.9254C13.2126 16.3375 13.5133 16.7051 13.9255 16.7463C14.3376 16.7875 14.7051 16.4868 14.7464 16.0746L15.2464 11.0746Z" />
  </symbol>

  <symbol id="clear" viewBox="0 0 24 24">
    <path fill-rule="evenodd" d="M13.0828 19.0632C12.6389 19.5072 12.2399 19.9062 11.8725 20.25H21C21.4142 20.25 21.75 20.5858 21.75 21C21.75 21.4142 21.4142 21.75 21 21.75H9C8.98166 21.75 8.96347 21.7493 8.94546 21.748C8.24156 21.7211 7.64439 21.4169 7.05863 20.97C6.47124 20.5218 5.81539 19.866 5.01269 19.0632L4.93674 18.9873C4.13402 18.1846 3.47815 17.5288 3.03 16.9414C2.56159 16.3274 2.25 15.701 2.25 14.9522C2.25 14.2035 2.56159 13.577 3.03 12.9631C3.47816 12.3757 4.13402 11.7199 4.93674 10.9172L10.9172 4.93674C11.7199 4.13403 12.3757 3.47815 12.9631 3.03C13.577 2.56159 14.2035 2.25 14.9522 2.25C15.701 2.25 16.3274 2.56159 16.9414 3.03C17.5288 3.47816 18.1846 4.13402 18.9873 4.93674L19.0632 5.01269C19.866 5.81539 20.5218 6.47124 20.97 7.05863C21.4384 7.67256 21.75 8.29902 21.75 9.04776C21.75 9.79649 21.4384 10.423 20.97 11.0369C20.5219 11.6243 19.866 12.2801 19.0633 13.0827L13.0828 19.0632ZM11.9399 6.03539C12.7899 5.18538 13.3752 4.60235 13.873 4.22253C14.3535 3.85592 14.6633 3.75 14.9522 3.75C15.2411 3.75 15.551 3.85592 16.0315 4.22253C16.5293 4.60235 17.1146 5.18538 17.9646 6.03539C18.8146 6.88541 19.3977 7.47069 19.7775 7.9685C20.1441 8.449 20.25 8.75886 20.25 9.04776C20.25 9.33665 20.1441 9.64651 19.7775 10.127C19.3977 10.6248 18.8146 11.2101 17.9646 12.0601L13.7713 16.2534L7.74662 10.2287L11.9399 6.03539ZM9.04776 20.25C9.33665 20.25 9.64651 20.1441 10.127 19.7775C10.6248 19.3977 11.2101 18.8146 12.0601 17.9646L12.7107 17.314L6.68596 11.2893L6.03539 11.9399C5.18538 12.7899 4.60235 13.3752 4.22253 13.873C3.85592 14.3535 3.75 14.6633 3.75 14.9522C3.75 15.2411 3.85592 15.551 4.22253 16.0315C4.60235 16.5293 5.18538 17.1146 6.03539 17.9646C6.88541 18.8146 7.47069 19.3977 7.9685 19.7775C8.449 20.1441 8.75886 20.25 9.04776 20.25Z" />
  </symbol>

  <symbol id="close" viewBox="0 0 24 24">
    <path d="m 5.8607761,4.8000557 c -0.29289,-0.29289 -0.76777,-0.29289 -1.06066,0 -0.29289,0.29289 -0.29289,0.76777 0,1.06063 l 6.0800769,6.0302243 -6.08021,6.248521 c -0.29289,0.2929 -0.29289,0.7677 0,1.0606 0.29289,0.2929 0.7677625,0.293546 1.0606325,6.46e-4 l 6.1393765,-6.139331 6.139397,6.139015 c 0.292909,0.292891 0.7678,0.2929 1.0607,0 0.2929,-0.2929 0.2929,-0.7678 0,-1.0606 l -6.139497,-6.139115 6.139377,-6.1392653 c 0.2929,-0.29284 0.292908,-0.7683656 8e-6,-1.0612556 -0.2929,-0.29289 -0.7678,-0.29289 -1.0607,0 l -6.169851,6.1190609 z" />
  </symbol>

  <symbol id="settings" viewBox="0 0 24 24">
    <path d="M12 8.25C9.92894 8.25 8.25 9.92893 8.25 12C8.25 14.0711 9.92894 15.75 12 15.75C14.0711 15.75 15.75 14.0711 15.75 12C15.75 9.92893 14.0711 8.25 12 8.25ZM9.75 12C9.75 10.7574 10.7574 9.75 12 9.75C13.2426 9.75 14.25 10.7574 14.25 12C14.25 13.2426 13.2426 14.25 12 14.25C10.7574 14.25 9.75 13.2426 9.75 12Z" />
    <path d="M11.9747 1.25C11.5303 1.24999 11.1592 1.24999 10.8546 1.27077C10.5375 1.29241 10.238 1.33905 9.94761 1.45933C9.27379 1.73844 8.73843 2.27379 8.45932 2.94762C8.31402 3.29842 8.27467 3.66812 8.25964 4.06996C8.24756 4.39299 8.08454 4.66251 7.84395 4.80141C7.60337 4.94031 7.28845 4.94673 7.00266 4.79568C6.64714 4.60777 6.30729 4.45699 5.93083 4.40743C5.20773 4.31223 4.47642 4.50819 3.89779 4.95219C3.64843 5.14353 3.45827 5.3796 3.28099 5.6434C3.11068 5.89681 2.92517 6.21815 2.70294 6.60307L2.67769 6.64681C2.45545 7.03172 2.26993 7.35304 2.13562 7.62723C1.99581 7.91267 1.88644 8.19539 1.84541 8.50701C1.75021 9.23012 1.94617 9.96142 2.39016 10.5401C2.62128 10.8412 2.92173 11.0602 3.26217 11.2741C3.53595 11.4461 3.68788 11.7221 3.68786 12C3.68785 12.2778 3.53592 12.5538 3.26217 12.7258C2.92169 12.9397 2.62121 13.1587 2.39007 13.4599C1.94607 14.0385 1.75012 14.7698 1.84531 15.4929C1.88634 15.8045 1.99571 16.0873 2.13552 16.3727C2.26983 16.6469 2.45535 16.9682 2.67758 17.3531L2.70284 17.3969C2.92507 17.7818 3.11058 18.1031 3.28089 18.3565C3.45817 18.6203 3.64833 18.8564 3.89769 19.0477C4.47632 19.4917 5.20763 19.6877 5.93073 19.5925C6.30717 19.5429 6.647 19.3922 7.0025 19.2043C7.28833 19.0532 7.60329 19.0596 7.8439 19.1986C8.08452 19.3375 8.24756 19.607 8.25964 19.9301C8.27467 20.3319 8.31403 20.7016 8.45932 21.0524C8.73843 21.7262 9.27379 22.2616 9.94761 22.5407C10.238 22.661 10.5375 22.7076 10.8546 22.7292C11.1592 22.75 11.5303 22.75 11.9747 22.75H12.0252C12.4697 22.75 12.8407 22.75 13.1454 22.7292C13.4625 22.7076 13.762 22.661 14.0524 22.5407C14.7262 22.2616 15.2616 21.7262 15.5407 21.0524C15.686 20.7016 15.7253 20.3319 15.7403 19.93C15.7524 19.607 15.9154 19.3375 16.156 19.1985C16.3966 19.0596 16.7116 19.0532 16.9974 19.2042C17.3529 19.3921 17.6927 19.5429 18.0692 19.5924C18.7923 19.6876 19.5236 19.4917 20.1022 19.0477C20.3516 18.8563 20.5417 18.6203 20.719 18.3565C20.8893 18.1031 21.0748 17.7818 21.297 17.3969L21.3223 17.3531C21.5445 16.9682 21.7301 16.6468 21.8644 16.3726C22.0042 16.0872 22.1135 15.8045 22.1546 15.4929C22.2498 14.7697 22.0538 14.0384 21.6098 13.4598C21.3787 13.1586 21.0782 12.9397 20.7378 12.7258C20.464 12.5538 20.3121 12.2778 20.3121 11.9999C20.3121 11.7221 20.464 11.4462 20.7377 11.2742C21.0783 11.0603 21.3788 10.8414 21.6099 10.5401C22.0539 9.96149 22.2499 9.23019 22.1547 8.50708C22.1136 8.19546 22.0043 7.91274 21.8645 7.6273C21.7302 7.35313 21.5447 7.03183 21.3224 6.64695L21.2972 6.60318C21.0749 6.21825 20.8894 5.89688 20.7191 5.64347C20.5418 5.37967 20.3517 5.1436 20.1023 4.95225C19.5237 4.50826 18.7924 4.3123 18.0692 4.4075C17.6928 4.45706 17.353 4.60782 16.9975 4.79572C16.7117 4.94679 16.3967 4.94036 16.1561 4.80144C15.9155 4.66253 15.7524 4.39297 15.7403 4.06991C15.7253 3.66808 15.686 3.2984 15.5407 2.94762C15.2616 2.27379 14.7262 1.73844 14.0524 1.45933C13.762 1.33905 13.4625 1.29241 13.1454 1.27077C12.8407 1.24999 12.4697 1.24999 12.0252 1.25H11.9747ZM10.5216 2.84515C10.5988 2.81319 10.716 2.78372 10.9567 2.76729C11.2042 2.75041 11.5238 2.75 12 2.75C12.4762 2.75 12.7958 2.75041 13.0432 2.76729C13.284 2.78372 13.4012 2.81319 13.4783 2.84515C13.7846 2.97202 14.028 3.21536 14.1548 3.52165C14.1949 3.61826 14.228 3.76887 14.2414 4.12597C14.271 4.91835 14.68 5.68129 15.4061 6.10048C16.1321 6.51968 16.9974 6.4924 17.6984 6.12188C18.0143 5.9549 18.1614 5.90832 18.265 5.89467C18.5937 5.8514 18.9261 5.94047 19.1891 6.14228C19.2554 6.19312 19.3395 6.27989 19.4741 6.48016C19.6125 6.68603 19.7726 6.9626 20.0107 7.375C20.2488 7.78741 20.4083 8.06438 20.5174 8.28713C20.6235 8.50382 20.6566 8.62007 20.6675 8.70287C20.7108 9.03155 20.6217 9.36397 20.4199 9.62698C20.3562 9.70995 20.2424 9.81399 19.9397 10.0041C19.2684 10.426 18.8122 11.1616 18.8121 11.9999C18.8121 12.8383 19.2683 13.574 19.9397 13.9959C20.2423 14.186 20.3561 14.29 20.4198 14.373C20.6216 14.636 20.7107 14.9684 20.6674 15.2971C20.6565 15.3799 20.6234 15.4961 20.5173 15.7128C20.4082 15.9355 20.2487 16.2125 20.0106 16.6249C19.7725 17.0373 19.6124 17.3139 19.474 17.5198C19.3394 17.72 19.2553 17.8068 19.189 17.8576C18.926 18.0595 18.5936 18.1485 18.2649 18.1053C18.1613 18.0916 18.0142 18.045 17.6983 17.8781C16.9973 17.5075 16.132 17.4803 15.4059 17.8995C14.68 18.3187 14.271 19.0816 14.2414 19.874C14.228 20.2311 14.1949 20.3817 14.1548 20.4784C14.028 20.7846 13.7846 21.028 13.4783 21.1549C13.4012 21.1868 13.284 21.2163 13.0432 21.2327C12.7958 21.2496 12.4762 21.25 12 21.25C11.5238 21.25 11.2042 21.2496 10.9567 21.2327C10.716 21.2163 10.5988 21.1868 10.5216 21.1549C10.2154 21.028 9.97201 20.7846 9.84514 20.4784C9.80512 20.3817 9.77195 20.2311 9.75859 19.874C9.72896 19.0817 9.31997 18.3187 8.5939 17.8995C7.86784 17.4803 7.00262 17.5076 6.30158 17.8781C5.98565 18.0451 5.83863 18.0917 5.73495 18.1053C5.40626 18.1486 5.07385 18.0595 4.81084 17.8577C4.74458 17.8069 4.66045 17.7201 4.52586 17.5198C4.38751 17.314 4.22736 17.0374 3.98926 16.625C3.75115 16.2126 3.59171 15.9356 3.4826 15.7129C3.37646 15.4962 3.34338 15.3799 3.33248 15.2971C3.28921 14.9684 3.37828 14.636 3.5801 14.373C3.64376 14.2901 3.75761 14.186 4.0602 13.9959C4.73158 13.5741 5.18782 12.8384 5.18786 12.0001C5.18791 11.1616 4.73165 10.4259 4.06021 10.004C3.75769 9.81389 3.64385 9.70987 3.58019 9.62691C3.37838 9.3639 3.28931 9.03149 3.33258 8.7028C3.34348 8.62001 3.37656 8.50375 3.4827 8.28707C3.59181 8.06431 3.75125 7.78734 3.98935 7.37493C4.22746 6.96253 4.3876 6.68596 4.52596 6.48009C4.66055 6.27983 4.74468 6.19305 4.81093 6.14222C5.07395 5.9404 5.40636 5.85133 5.73504 5.8946C5.83873 5.90825 5.98576 5.95483 6.30173 6.12184C7.00273 6.49235 7.86791 6.51962 8.59394 6.10045C9.31998 5.68128 9.72896 4.91837 9.75859 4.12602C9.77195 3.76889 9.80512 3.61827 9.84514 3.52165C9.97201 3.21536 10.2154 2.97202 10.5216 2.84515Z" />
  </symbol>

  <symbol id="history" viewBox="0 0 24 24">
    <path d="M11.25 2C11.25 1.58579 11.5858 1.25 12 1.25C17.9371 1.25 22.75 6.06294 22.75 12C22.75 17.9371 17.9371 22.75 12 22.75C6.06294 22.75 1.25 17.9371 1.25 12C1.25 11.5858 1.58579 11.25 2 11.25C2.41421 11.25 2.75 11.5858 2.75 12C2.75 17.1086 6.89137 21.25 12 21.25C17.1086 21.25 21.25 17.1086 21.25 12C21.25 6.89137 17.1086 2.75 12 2.75C11.5858 2.75 11.25 2.41421 11.25 2ZM12 8.25C12.4142 8.25 12.75 8.58579 12.75 9V12.25H16C16.4142 12.25 16.75 12.5858 16.75 13C16.75 13.4142 16.4142 13.75 16 13.75H12C11.5858 13.75 11.25 13.4142 11.25 13V9C11.25 8.58579 11.5858 8.25 12 8.25Z" />
    <path d="M9.09958 2.39754C9.24874 2.78396 9.05641 3.21814 8.66999 3.36731C8.52855 3.42191 8.38879 3.47988 8.2508 3.54114C7.87221 3.70921 7.42906 3.53856 7.261 3.15997C7.09293 2.78139 7.26358 2.33824 7.64217 2.17017C7.80267 2.09892 7.96526 2.03147 8.1298 1.96795C8.51623 1.81878 8.95041 2.01112 9.09958 2.39754ZM5.6477 4.24026C5.93337 4.54021 5.92178 5.01495 5.62183 5.30061C5.51216 5.40506 5.40505 5.51216 5.30061 5.62183C5.01495 5.92178 4.54021 5.93337 4.24026 5.6477C3.94031 5.36204 3.92873 4.88731 4.21439 4.58736C4.33566 4.46003 4.46002 4.33566 4.58736 4.21439C4.88731 3.92873 5.36204 3.94031 5.6477 4.24026ZM3.15997 7.261C3.53856 7.42907 3.70921 7.87222 3.54114 8.2508C3.47988 8.38879 3.42191 8.52855 3.36731 8.66999C3.21814 9.05641 2.78396 9.24874 2.39754 9.09958C2.01112 8.95041 1.81878 8.51623 1.96795 8.12981C2.03147 7.96526 2.09892 7.80267 2.17017 7.64217C2.33824 7.26358 2.78139 7.09293 3.15997 7.261Z" />
  </symbol>

  <symbol id="collection" viewBox="0 0 24 24">
    <path fill-rule="evenodd" d="M8.25 18C8.25 17.5858 8.58579 17.25 9 17.25H15C15.4142 17.25 15.75 17.5858 15.75 18C15.75 18.4142 15.4142 18.75 15 18.75H9C8.58579 18.75 8.25 18.4142 8.25 18Z" />
    <path fill-rule="evenodd" d="M8.69935 1.25001H15.3004C15.5203 1.24995 15.6888 1.2499 15.8362 1.26571C17.1903 1.41104 18.2268 2.52307 18.2897 3.87013C19.4805 4.22571 20.3289 5.3275 20.3443 6.59118C20.9453 6.77151 21.4637 7.05595 21.888 7.51432C22.54 8.21857 22.7421 9.08649 22.7498 10.1003C22.7572 11.075 22.5835 12.3067 22.3678 13.8363L21.9288 16.9499C21.7602 18.146 21.6232 19.1176 21.4101 19.879C21.1871 20.6756 20.8585 21.331 20.25 21.8349C19.6463 22.3347 18.9301 22.5502 18.0835 22.6518C17.265 22.75 16.2353 22.75 14.9532 22.75H9.04687C7.76478 22.75 6.73501 22.75 5.91647 22.6518C5.06993 22.5502 4.35372 22.3347 3.75003 21.8349C3.14152 21.331 2.81286 20.6756 2.58989 19.879C2.37676 19.1176 2.23979 18.146 2.07118 16.9499L1.63219 13.8363C1.41651 12.3067 1.24283 11.075 1.25023 10.1003C1.25792 9.08649 1.45997 8.21857 2.11196 7.51432C2.53621 7.05606 3.05445 6.77164 3.65528 6.5913C3.67058 5.3275 4.51917 4.22559 5.71005 3.87007C5.77295 2.52304 6.80943 1.41104 8.16359 1.26571C8.31094 1.2499 8.4795 1.24995 8.69935 1.25001ZM5.18902 6.32785C6.11481 6.24999 7.24973 6.25 8.61594 6.25001H15.384C16.75 6.25 17.8848 6.24999 18.8105 6.32781C18.6734 5.72018 18.1306 5.25001 17.4617 5.25001H6.53787C5.86896 5.25001 5.32618 5.72019 5.18902 6.32785ZM15.6761 2.75715C16.2263 2.8162 16.6611 3.22633 16.7677 3.75001H7.2321C7.33862 3.22633 7.77344 2.8162 8.32365 2.75715C8.37993 2.75111 8.46013 2.75001 8.74099 2.75001H15.2588C15.5396 2.75001 15.6198 2.75111 15.6761 2.75715ZM3.21267 8.53336C3.51557 8.20618 3.97106 7.98917 4.85612 7.87145C5.75726 7.75159 6.96357 7.75001 8.67239 7.75001H15.3276C17.0364 7.75001 18.2427 7.75159 19.1439 7.87145C20.0289 7.98917 20.4844 8.20618 20.7873 8.53336C21.0832 8.85293 21.2436 9.28782 21.2498 10.1117C21.2563 10.9618 21.1002 12.0828 20.8738 13.6883L20.4509 16.6883C20.2731 17.9491 20.1486 18.821 19.9656 19.4747C19.7894 20.1042 19.582 20.4405 19.2934 20.6795C18.9999 20.9225 18.6058 21.0784 17.9048 21.1625C17.1861 21.2488 16.2465 21.25 14.9046 21.25H9.09536C7.75347 21.25 6.81393 21.2488 6.09519 21.1625C5.39417 21.0784 5.00014 20.9225 4.70664 20.6795C4.41795 20.4405 4.21058 20.1042 4.03437 19.4747C3.8514 18.821 3.7269 17.9491 3.54913 16.6883L3.12616 13.6883C2.89981 12.0828 2.74373 10.9618 2.75018 10.1117C2.75644 9.28782 2.91681 8.85293 3.21267 8.53336Z" />
  </symbol>

  <symbol id="environment" viewBox="0 0 24 24">
    <path fill-rule="evenodd" d="M5.57801 5.34262C3.83444 7.02492 2.75 9.38581 2.75 12C2.75 17.1086 6.89137 21.25 12 21.25C12.1275 21.25 12.2544 21.2474 12.3807 21.2423C12.1752 20.3307 12.1474 19.1051 12.774 17.9243C13.4261 16.6955 14.7762 16.1622 15.7689 15.9182C16.289 15.7904 16.7708 15.7273 17.1211 15.6959C17.2972 15.6801 17.4423 15.6721 17.5452 15.668C17.5966 15.666 17.6377 15.6649 17.667 15.6644L17.7019 15.6639L17.7104 15.6638C19.3829 15.6464 20.1364 15.1025 20.5363 14.5836C20.8779 14.1404 21.0069 13.6971 21.1377 13.2475C21.1543 13.1903 21.171 13.133 21.1881 13.0756C21.229 12.7227 21.25 12.3638 21.25 12C21.25 9.47592 20.239 7.18797 18.5999 5.51898C18.5912 5.55304 18.5823 5.5866 18.5732 5.6196C18.4104 6.21256 18.1475 6.82114 17.8618 7.25475C17.6059 7.64313 17.1095 8.03492 16.6975 8.33094C16.4263 8.52578 16.144 8.6913 15.8879 8.83888C15.857 8.85672 15.8265 8.87428 15.7963 8.8916C15.5683 9.02278 15.3631 9.14077 15.1656 9.27123C14.7338 9.55655 14.3997 9.86363 14.1748 10.3273C14.0961 10.4897 14.0936 10.6481 14.1402 10.8177C14.2148 11.0892 14.2656 11.3946 14.2664 11.706C14.2681 12.355 13.9375 12.8817 13.5126 13.2241C13.0928 13.5625 12.5441 13.756 11.9918 13.75C9.53653 13.7231 8.02692 11.7306 7.82782 9.51448C7.74861 8.63293 7.36212 7.74121 6.87411 6.96185C6.42593 6.2461 5.92094 5.67095 5.57801 5.34262ZM6.74505 4.38662C7.1601 4.80462 7.68084 5.42381 8.14544 6.16579C8.70296 7.05616 9.21374 8.17759 9.3218 9.38025C9.47276 11.0605 10.5349 12.234 12.0082 12.25C12.2108 12.2523 12.4212 12.1772 12.5714 12.0562C12.7165 11.9393 12.7667 11.8158 12.7664 11.7099C12.766 11.5544 12.7398 11.3825 12.6937 11.2148C12.5726 10.7736 12.5553 10.2292 12.8252 9.67271C13.2102 8.87891 13.7808 8.38838 14.3388 8.01971C14.5779 7.86171 14.826 7.71918 15.0498 7.59055C15.08 7.57322 15.1097 7.55613 15.1389 7.5393C15.3941 7.39218 15.6182 7.25939 15.8222 7.11277C16.2533 6.80305 16.526 6.55581 16.6092 6.42947C16.7917 6.15255 16.9969 5.69533 17.1267 5.2225C17.2296 4.84787 17.2581 4.56036 17.2485 4.38216C15.7573 3.35281 13.949 2.75 12 2.75C10.0481 2.75 8.23748 3.35455 6.74505 4.38662ZM22.6792 13.2403C22.726 12.8333 22.75 12.4195 22.75 12C22.75 6.06294 17.9371 1.25 12 1.25C6.06294 1.25 1.25 6.06294 1.25 12C1.25 17.9371 6.06294 22.75 12 22.75C17.4604 22.75 21.9699 18.6789 22.6588 13.4064C22.6771 13.3429 22.6929 13.29 22.7071 13.2501L22.6792 13.2403ZM19.9047 16.8066C19.3091 17.0249 18.5912 17.1547 17.7261 17.1638L17.7182 17.1638V17.1638L17.7156 17.1638L17.695 17.1641C17.6755 17.1645 17.6449 17.1652 17.6044 17.1668C17.5233 17.1701 17.4034 17.1766 17.2552 17.1899C16.9571 17.2166 16.5537 17.27 16.1269 17.3749C15.2257 17.5964 14.435 17.9942 14.099 18.6274C13.6435 19.4857 13.7085 20.4196 13.8784 21.0592C16.4274 20.5334 18.5931 18.9589 19.9047 16.8066Z" />
  </symbol>

  <symbol id="console" viewBox="0 0 24 24">
    <path d="M17.75 15C17.75 15.4142 17.4142 15.75 17 15.75H12C11.5858 15.75 11.25 15.4142 11.25 15C11.25 14.5858 11.5858 14.25 12 14.25H17C17.4142 14.25 17.75 14.5858 17.75 15Z" />
    <path d="M7.48014 9.42383C7.16193 9.15866 6.68901 9.20165 6.42383 9.51986C6.15866 9.83807 6.20165 10.311 6.51986 10.5762L6.75427 10.7715C7.41283 11.3203 7.84346 11.6815 8.11966 11.9874C8.38194 12.2778 8.40693 12.414 8.40693 12.5C8.40693 12.586 8.38194 12.7222 8.11966 13.0126C7.84346 13.3185 7.41283 13.6797 6.75427 14.2285L6.51986 14.4238C6.20165 14.689 6.15866 15.1619 6.42383 15.4801C6.68901 15.7983 7.16193 15.8413 7.48014 15.5762L7.75656 15.3458C8.36151 14.8417 8.87651 14.4126 9.23293 14.0179C9.61149 13.5987 9.90693 13.1166 9.90693 12.5C9.90693 11.8834 9.61149 11.4013 9.23293 10.9821C8.87651 10.5874 8.36151 10.1583 7.75656 9.65418L7.48014 9.42383Z" />
    <path fill-rule="evenodd" clip-rule="evenodd" d="M11.9426 1.25H12.0574C14.3658 1.24999 16.1748 1.24998 17.5863 1.43975C19.031 1.63399 20.1711 2.03933 21.0659 2.93414C21.9607 3.82895 22.366 4.96897 22.5603 6.41371C22.75 7.82519 22.75 9.63423 22.75 11.9426V12.0574C22.75 14.3658 22.75 16.1748 22.5603 17.5863C22.366 19.031 21.9607 20.1711 21.0659 21.0659C20.1711 21.9607 19.031 22.366 17.5863 22.5603C16.1748 22.75 14.3658 22.75 12.0574 22.75H11.9426C9.63423 22.75 7.82519 22.75 6.41371 22.5603C4.96897 22.366 3.82895 21.9607 2.93414 21.0659C2.03933 20.1711 1.63399 19.031 1.43975 17.5863C1.24998 16.1748 1.24999 14.3658 1.25 12.0574V11.9426C1.24999 9.63423 1.24998 7.82519 1.43975 6.41371C1.63399 4.96897 2.03933 3.82895 2.93414 2.93414C3.82895 2.03933 4.96897 1.63399 6.41371 1.43975C7.82519 1.24998 9.63423 1.24999 11.9426 1.25ZM6.61358 2.92637C5.33517 3.09825 4.56445 3.42514 3.9948 3.9948C3.42514 4.56445 3.09825 5.33517 2.92637 6.61358C2.75159 7.91356 2.75 9.62178 2.75 12C2.75 14.3782 2.75159 16.0864 2.92637 17.3864C3.09825 18.6648 3.42514 19.4355 3.9948 20.0052C4.56445 20.5749 5.33517 20.9018 6.61358 21.0736C7.91356 21.2484 9.62178 21.25 12 21.25C14.3782 21.25 16.0864 21.2484 17.3864 21.0736C18.6648 20.9018 19.4355 20.5749 20.0052 20.0052C20.5749 19.4355 20.9018 18.6648 21.0736 17.3864C21.2484 16.0864 21.25 14.3782 21.25 12C21.25 9.62178 21.2484 7.91356 21.0736 6.61358C20.9018 5.33517 20.5749 4.56445 20.0052 3.9948C19.4355 3.42514 18.6648 3.09825 17.3864 2.92637C16.0864 2.75159 14.3782 2.75 12 2.75C9.62178 2.75 7.91356 2.75159 6.61358 2.92637Z" />
  </symbol>

  <symbol id="more" viewBox="0 0 24 24">
    <path d="m 12.75,6.6 c 0,-0.41421 -0.3358,-0.75 -0.75,-0.75 -0.4142,0 -0.75,0.33579 -0.75,0.75 v 4.65 H 6.6 c -0.41421,0 -0.75,0.3358 -0.75,0.75 0,0.4142 0.33579,0.75 0.75,0.75 h 4.65 v 4.65 c 0,0.4142 0.3358,0.75 0.75,0.75 0.4142,0 0.75,-0.3358 0.75,-0.75 v -4.65 h 4.65 c 0.4142,0 0.75,-0.3358 0.75,-0.75 0,-0.4142 -0.3358,-0.75 -0.75,-0.75 h -4.65 z" />
    <path d="M12.0574 1.25H11.9426C9.63424 1.24999 7.82519 1.24998 6.41371 1.43975C4.96897 1.63399 3.82895 2.03933 2.93414 2.93414C2.03933 3.82895 1.63399 4.96897 1.43975 6.41371C1.24998 7.82519 1.24999 9.63422 1.25 11.9426V12.0574C1.24999 14.3658 1.24998 16.1748 1.43975 17.5863C1.63399 19.031 2.03933 20.1711 2.93414 21.0659C3.82895 21.9607 4.96897 22.366 6.41371 22.5603C7.82519 22.75 9.63423 22.75 11.9426 22.75H12.0574C14.3658 22.75 16.1748 22.75 17.5863 22.5603C19.031 22.366 20.1711 21.9607 21.0659 21.0659C21.9607 20.1711 22.366 19.031 22.5603 17.5863C22.75 16.1748 22.75 14.3658 22.75 12.0574V11.9426C22.75 9.63423 22.75 7.82519 22.5603 6.41371C22.366 4.96897 21.9607 3.82895 21.0659 2.93414C20.1711 2.03933 19.031 1.63399 17.5863 1.43975C16.1748 1.24998 14.3658 1.24999 12.0574 1.25ZM3.9948 3.9948C4.56445 3.42514 5.33517 3.09825 6.61358 2.92637C7.91356 2.75159 9.62177 2.75 12 2.75C14.3782 2.75 16.0864 2.75159 17.3864 2.92637C18.6648 3.09825 19.4355 3.42514 20.0052 3.9948C20.5749 4.56445 20.9018 5.33517 21.0736 6.61358C21.2484 7.91356 21.25 9.62177 21.25 12C21.25 14.3782 21.2484 16.0864 21.0736 17.3864C20.9018 18.6648 20.5749 19.4355 20.0052 20.0052C19.4355 20.5749 18.6648 20.9018 17.3864 21.0736C16.0864 21.2484 14.3782 21.25 12 21.25C9.62177 21.25 7.91356 21.2484 6.61358 21.0736C5.33517 20.9018 4.56445 20.5749 3.9948 20.0052C3.42514 19.4355 3.09825 18.6648 2.92637 17.3864C2.75159 16.0864 2.75 14.3782 2.75 12C2.75 9.62177 2.75159 7.91356 2.92637 6.61358C3.09825 5.33517 3.42514 4.56445 3.9948 3.9948Z" />
  </symbol>
</svg>
